# AST/ASF file generated using VICON BodyLanguage
# -----------------------------------------------
:version 1.10
:name VICON
:units
  mass 1.0
  length 0.45
  angle deg
:documentation
   .ast/.asf automatically generated from VICON data using
   VICON BodyBuilder and BodyLanguage model FoxedUp or BRILLIANT.MOD
:root
   order TX TY TZ RX RY RZ
   axis XYZ
   position 0 0 0  
   orientation 0 0 0 
:bonedata
  begin
     id 1 
     name lhipjoint
     direction 0.621036 -0.695554 0.361275 
     length 2.46325 
     axis 0 0 0  XYZ
  end
  begin
     id 2 
     name lfemur
     direction 0.34202 -0.939693 0  
     length 6.54784  
     axis 0 0 20  XYZ
    dof rx ry rz
    limits (-160.0 20.0)
           (-70.0 70.0)
           (-60.0 70.0)
  end
  begin
     id 3 
     name ltibia
     direction 0.34202 -0.939693 0   
     length 7.84737   
     axis 0 0 20   XYZ
    dof rx
    limits (-10.0 170.0)
  end
  begin
     id 4 
     name lfoot
     direction 0.0790693 -0.217241 0.97291   
     length 2.59747   
     axis -90 7.62852e-016 20   XYZ
    dof rx rz
    limits (-45.0 90.0)
           (-70.0 20.0)
  end
  begin
     id 5 
     name ltoes
     direction 1.53572e-011 -4.21898e-011 1   
     length 1.29919   
     axis -90 7.62852e-016 20   XYZ
    dof rx
    limits (-90.0 20.0)
  end
  begin
     id 6 
     name rhipjoint
     direction -0.602353 -0.708375 0.367935   
     length 2.41867  
     axis 0 0 0  XYZ 
  end
  begin
     id 7 
     name rfemur
     direction -0.34202 -0.939693 0   
     length 6.92065   
     axis 0 0 -20   XYZ
    dof rx ry rz
    limits (-160.0 20.0)
           (-70.0 70.0)
           (-70.0 60.0)
  end
  begin
     id 8 
     name rtibia
     direction -0.34202 -0.939693 0   
     length 7.88883   
     axis 0 0 -20   XYZ
    dof rx
    limits (-10.0 170.0)
 end
 begin
     id 9 
     name rfoot
     direction -0.0768692 -0.211196 0.974416   
     length 2.43714  
     axis -90 -7.62852e-016 -20   XYZ
    dof rx rz
    limits (-45.0 90.0)
           (-20.0 70.0)
  end
  begin
     id 10 
     name rtoes
     direction -1.53575e-011 -4.21933e-011 1   
     length 1.22113   
     axis -90 -7.62852e-016 -20   XYZ
    dof rx
    limits (-90.0 20.0)
  end
  begin
     id 11 
     name lowerback
     direction 0.0197937 0.98943 -0.143655   
     length 2.16931   
     axis 0 0 0   XYZ
    dof rx ry rz
    limits (-20.0 45.0)
           (-30.0 30.0)
           (-30.0 30.0)
  end
  begin
     id 12 
     name upperback
     direction -0.00183968 0.999975 0.00684288   
     length 2.17221   
     axis 0 0 0   XYZ
    dof rx ry rz
    limits (-20.0 45.0)
           (-30.0 30.0)
           (-30.0 30.0)
  end
  begin
     id 13 
     name thorax
     direction -0.00950244 0.997208 0.0740685   
     length 2.22549   
     axis 0 0 0   XYZ
    dof rx ry rz
    limits (-20.0 45.0)
           (-30.0 30.0)
           (-30.0 30.0)
  end
  begin
     id 14 
     name lowerneck
     direction 0.0218238 0.996215 0.0841425   
     length 1.77269   
     axis 0 0 0   XYZ
    dof rx ry rz
    limits (-20.0 45.0)
           (-30.0 30.0)
           (-30.0 30.0)
  end
  begin
     id 15 
     name upperneck
     direction -0.00430652 0.994214 -0.107332   
     length 1.76534   
     axis 0 0 0   XYZ
    dof rx ry rz
    limits (-20.0 45.0)
           (-30.0 30.0)
           (-30.0 30.0)
  end
  begin
     id 16
     name head
     direction -0.00328946 0.998959 -0.0454998  
     length 1.82634  
     axis 0 0 0   XYZ
    dof rx ry rz
    limits (-20.0 45.0)
           (-30.0 30.0)
           (-30.0 30.0)
  end
  begin
     id 17 
     name lclavicle
     direction 0.970962 0.239191 0.00450212  
     length 3.84872  
     axis 0 0 0   XYZ
    dof ry rz
    limits (-20.0 10.0)
           (0.0 20.0)
  end
  begin
     id 18 
     name lhumerus
     direction 1 -4.48966e-011 5.74696e-028   
     length 5.22771   
     axis 180 -30 -90   XYZ
    dof rx ry rz
    limits (-60.0 90.0)
           (-90.0 90.0)
           (-90.0 90.0)
  end
  begin
     id 19
     name lradius
     direction 1 -4.4896e-011 4.25109e-027   
     length 3.45251   
     axis 180 -30 -90   XYZ
    dof rx
    limits (-10.0 170.0)
  end
  begin
     id 20
     name lwrist
     direction 1 -4.48971e-011 1.15382e-027   
     length 1.72626   
     axis -5.52449e-016 90 90   XYZ
    dof ry
    limits (-180.0 0.0)
 end
  begin
     id 21 
     name lhand
     direction 1 -4.49034e-011 2.30765e-027   
     length 0.552119   
     axis -1.47248e-015 90 90   XYZ
    dof rx rz
    limits (-90.0 90.0)
           (-45.0 45.0)
  end
  begin
     id 22 
     name lfingers
     direction 1 -4.48951e-011 4.61529e-027   
     length 0.445133   
     axis -2.94495e-015 90 90   XYZ
    dof rx
    limits (0.0 90.0)
  end
  begin
     id 23
     name lthumb
     direction 0.707107 -6.34991e-011 0.707107   
     length 0.639124   
     axis -90 45 2.85299e-015   XYZ
    dof rx rz
    limits (-45.0 45.0)
           (-45.0 45.0)
  end
  begin
     id 24 
     name rclavicle
     direction -0.97424 0.222511 -0.0366699   
     length 3.73439  
     axis 0 0 0   XYZ 
    dof ry rz
    limits (-10.0 20.0)
           (-20.0 0.0)
  end
  begin
     id 25 
     name rhumerus
     direction -1 -4.48956e-011 -4.97258e-028  
     length 5.2398   
     axis 180 30 90   XYZ
    dof rx ry rz
    limits (-90.0 60.0)
           (-90.0 90.0)
           (-90.0 90.0)
  end
  begin
     id 26 
     name rradius
     direction -1 -4.4897e-011 -1.72611e-027   
     length 3.48042   
     axis 180 30 90   XYZ
    dof rx
    limits (-10.0 170.0)
  end
  begin
     id 27 
     name rwrist
     direction -1 -4.48976e-011 1.15382e-027   
     length 1.74021   
     axis -5.52449e-016 -90 -90   XYZ
    dof ry
    limits (-180.0 0.0)
  end
  begin
     id 28
     name rhand
     direction -1 -4.48963e-011 2.30765e-027   
     length 0.618713   
     axis -1.47248e-015 -90 -90   XYZ
    dof rx rz
    limits (-90.0 90.0)
           (-45.0 45.0)
  end
  begin
     id 29
     name rfingers
     direction -1 -4.4888e-011 4.61529e-027   
     length 0.498823   
     axis -2.94495e-015 -90 -90   XYZ
    dof rx
    limits (0.0 90.0)
  end
  begin
     id 30
     name rthumb
     direction -0.707107 -6.34968e-011 0.707107   
     length 0.716213   
     axis -90 -45 -2.85299e-015   XYZ
    dof rx rz
    limits (-45.0 45.0)
           (-45.0 45.0)
  end
:hierarchy
  begin
    root lhipjoint rhipjoint lowerback
    lhipjoint lfemur
    lfemur ltibia
    ltibia lfoot
    lfoot ltoes
    rhipjoint rfemur
    rfemur rtibia
    rtibia rfoot
    rfoot rtoes
    lowerback upperback
    upperback thorax
    thorax lowerneck lclavicle rclavicle
    lowerneck upperneck
    upperneck head
    lclavicle lhumerus
    lhumerus lradius
    lradius lwrist
    lwrist lhand lthumb
    lhand lfingers
    rclavicle rhumerus
    rhumerus rradius
    rradius rwrist
    rwrist rhand rthumb
    rhand rfingers
  end

#!OML:ASF G:\JayActor3\Patient Classification 1\Patient 1\Session 5\male.ASF
:FULLY-SPECIFIED
:DEGREES
70
root -36.2187 16.8018 -7.34807 -2.5948 87.9542 -5.18735
lowerback 3.74004 -1.23709 -1.81808
upperback 3.45029 -1.62578 -0.223668
thorax 1.49106 -0.820066 0.827122
lowerneck -9.433 0.0292061 3.34265
upperneck 5.53276 -0.451852 0.983979
head 3.46367 -0.0981855 -0.293192
rclavicle 2.03754e-015 1.07344e-014
rhumerus -33.0819 -11.545 -82.5158
rradius 25.7308
rwrist 6.0999
rhand -18.1054 -4.50229
rfingers 7.12502
rthumb 8.16856 -34.3244
lclavicle 2.03754e-015 1.07344e-014
lhumerus -26.3303 0.0946382 89.76
lradius 29.7601
lwrist 20.9856
lhand -16.4717 16.6685
lfingers 7.12502
lthumb 9.74509 46.4231
rfemur -41.1461 7.59356 16.9785
rtibia 34.4439
rfoot -25.0079 -15.4433
rtoes -7.75402
lfemur 14.2506 12.5038 -23.1476
ltibia -2.22639e-014
lfoot -16.3319 17.9295
ltoes -8.5029
71
root -36.1412 16.7904 -7.34993 1.47239 88.0462 -1.17022
lowerback 3.73193 -1.2523 -1.87537
upperback 3.4517 -1.6467 -0.250572
thorax 1.49861 -0.831313 0.831809
lowerneck -9.45654 0.0114583 3.3249
upperneck 5.50264 -0.472802 0.970181
head 3.45742 -0.110039 -0.295862
rclavicle -3.52843e-015 -1.98785e-016
rhumerus -33.155 -11.6476 -82.3832
rradius 25.6262
rwrist 6.18442
rhand -18.0964 -4.49394
rfingers 7.12502
rthumb 8.1773 -34.3157
lclavicle -3.52843e-015 -1.98785e-016
lhumerus -26.3706 -0.306189 90.0576
lradius 30.3725
lwrist 21.2526
lhand -16.5009 16.6731
lfingers 7.12502
lthumb 9.71689 46.429
rfemur -41.2498 7.52104 16.7677
rtibia 34.1657
rfoot -24.9778 -15.3124
rtoes -7.97359
lfemur 14.4815 12.4968 -23.2577
ltibia -7.63333e-014
lfoot -16.41 17.9383
ltoes -8.90641
72
root -36.062 16.7778 -7.35117 5.83054 88.1264 3.14401
lowerback 3.737 -1.2667 -1.92905
upperback 3.44535 -1.66699 -0.276384
thorax 1.49072 -0.842062 0.836021
lowerneck -9.46824 -0.00432215 3.30918
upperneck 5.47228 -0.490686 0.953796
head 3.4488 -0.120492 -0.299522
rclavicle 1.03368e-014 5.96354e-016
rhumerus -33.2398 -11.7389 -82.2512
rradius 25.524
rwrist 6.25872
rhand -18.0928 -4.48541
rfingers 7.12502
rthumb 8.18078 -34.307
lclavicle 1.03368e-014 5.96354e-016
lhumerus -26.4213 -0.700238 90.3521
lradius 30.9687
lwrist 21.497
lhand -16.5298 16.6766
lfingers 7.12502
lthumb 9.68901 46.4338
rfemur -41.3337 7.38577 16.5989
rtibia 33.9734
rfoot -24.8758 -15.219
rtoes -8.23553
lfemur 14.7309 12.4904 -23.3598
ltibia -2.8625e-014
lfoot -16.4866 17.9438
ltoes -9.32252
73
root -35.9811 16.7639 -7.35172 10.3032 88.1994 7.57762
lowerback 3.7514 -1.2825 -1.97457
upperback 3.43716 -1.68925 -0.298164
thorax 1.47568 -0.853608 0.840104
lowerneck -9.4846 -0.018518 3.29387
upperneck 5.44522 -0.50644 0.932751
head 3.44228 -0.130022 -0.304688
rclavicle 1.98785e-016 2.5842e-015
rhumerus -33.3235 -11.8135 -82.1208
rradius 25.4257
rwrist 6.32619
rhand -18.0779 -4.48484
rfingers 7.12502
rthumb 8.19511 -34.3059
lclavicle 1.98785e-016 2.5842e-015
lhumerus -26.4724 -1.08082 90.6448
lradius 31.5525
lwrist 21.7287
lhand -16.5549 16.7116
lfingers 7.12502
lthumb 9.66482 46.4699
rfemur -41.3931 7.19167 16.4734
rtibia 33.8675
rfoot -24.7379 -15.116
rtoes -8.41307
lfemur 14.9969 12.4804 -23.4485
ltibia -2.54444e-014
lfoot -16.5574 17.9513
ltoes -9.75352
74
root -35.8986 16.749 -7.35132 14.5726 88.2684 11.8062
lowerback 3.76246 -1.3009 -2.00649
upperback 3.42856 -1.71475 -0.311731
thorax 1.462 -0.866641 0.845006
lowerneck -9.50339 -0.0305513 3.27663
upperneck 5.41929 -0.51906 0.909921
head 3.43667 -0.138098 -0.309925
rclavicle -3.27995e-014 -3.18055e-015
rhumerus -33.3971 -11.8813 -81.9901
rradius 25.3237
rwrist 6.40022
rhand -18.0609 -4.49834
rfingers 7.12502
rthumb 8.21155 -34.3188
lclavicle -3.27995e-014 -3.18055e-015
lhumerus -26.5187 -1.44048 90.9331
lradius 32.1166
lwrist 21.9548
lhand -16.5852 16.768
lfingers 7.12502
lthumb 9.63554 46.5276
rfemur -41.4326 6.97063 16.3871
rtibia 33.8405
rfoot -24.5783 -15.0279
rtoes -8.50628
lfemur 15.2742 12.4658 -23.5138
ltibia 1.90833e-014
lfoot -16.6285 17.957
ltoes -10.1613
75
root -35.8143 16.7331 -7.34998 18.9293 88.3389 16.1197
lowerback 3.77997 -1.32198 -2.02561
upperback 3.41176 -1.74404 -0.323837
thorax 1.43604 -0.881248 0.844643
lowerneck -9.52719 -0.0413579 3.26417
upperneck 5.40602 -0.531014 0.886082
head 3.43647 -0.145557 -0.316349
rclavicle 1.63997e-014 -7.35503e-015
rhumerus -33.4738 -11.9472 -81.863
rradius 25.2213
rwrist 6.47662
rhand -18.0431 -4.52032
rfingers 7.12502
rthumb 8.22875 -34.3401
lclavicle 1.63997e-014 -7.35503e-015
lhumerus -26.5744 -1.78468 91.2142
lradius 32.6662
lwrist 22.168
lhand -16.6217 16.8511
lfingers 7.12502
lthumb 9.60037 46.6124
rfemur -41.4518 6.7458 16.3162
rtibia 33.8851
rfoot -24.3969 -14.9686
rtoes -8.49611
lfemur 15.5632 12.4413 -23.5653
ltibia 3.18055e-014
lfoot -16.7048 17.9598
ltoes -10.5085
76
root -35.7281 16.7166 -7.34757 23.4779 88.4144 20.6209
lowerback 3.77625 -1.34689 -2.03971
upperback 3.40257 -1.77768 -0.328741
thorax 1.42998 -0.898224 0.848296
lowerneck -9.56699 -0.0507119 3.24772
upperneck 5.39884 -0.541156 0.86034
head 3.44155 -0.152149 -0.322668
rclavicle -2.41523e-014 -4.37326e-015
rhumerus -33.5249 -12.0227 -81.731
rradius 25.1073
rwrist 6.56234
rhand -18.0284 -4.51425
rfingers 7.12502
rthumb 8.24289 -34.3335
lclavicle -2.41523e-014 -4.37326e-015
lhumerus -26.6096 -2.09699 91.4894
lradius 33.1795
lwrist 22.3738
lhand -16.6554 16.912
lfingers 7.12502
lthumb 9.56781 46.6748
rfemur -41.4502 6.54264 16.2468
rtibia 33.9919
rfoot -24.1872 -14.961
rtoes -8.44491
lfemur 15.8626 12.4033 -23.6035
ltibia -7.63333e-014
lfoot -16.7901 17.9594
ltoes -10.7974
77
root -35.6396 16.6996 -7.34378 28.0409 88.4979 25.1303
lowerback 3.75855 -1.37596 -2.04201
upperback 3.39189 -1.8165 -0.325561
thorax 1.43021 -0.917772 0.853403
lowerneck -9.61427 -0.0590039 3.23284
upperneck 5.40096 -0.550235 0.830323
head 3.45135 -0.158214 -0.330673
rclavicle 1.31198e-014 3.97569e-016
rhumerus -33.5675 -12.1042 -81.5966
rradius 24.9903
rwrist 6.66109
rhand -18.0092 -4.51622
rfingers 7.12502
rthumb 8.26143 -34.3347
lclavicle 1.31198e-014 3.97569e-016
lhumerus -26.6385 -2.37935 91.7547
lradius 33.6561
lwrist 22.577
lhand -16.6757 16.9566
lfingers 7.12502
lthumb 9.54822 46.7202
rfemur -41.4295 6.38835 16.1778
rtibia 34.1525
rfoot -23.9834 -15.0037
rtoes -8.28702
lfemur 16.1678 12.352 -23.6183
ltibia -2.22639e-014
lfoot -16.8691 17.9628
ltoes -11.0562
78
root -35.5488 16.6828 -7.33842 33.1804 88.5957 30.2105
lowerback 3.7343 -1.4105 -2.03628
upperback 3.37213 -1.86272 -0.318965
thorax 1.42483 -0.940926 0.857647
lowerneck -9.65838 -0.0671405 3.21832
upperneck 5.41472 -0.559474 0.80392
head 3.46461 -0.164025 -0.337586
rclavicle 2.20651e-014 3.77691e-015
rhumerus -33.623 -12.1882 -81.4644
rradius 24.8823
rwrist 6.74676
rhand -17.9994 -4.52623
rfingers 7.12502
rthumb 8.27094 -34.3443
lclavicle 2.20651e-014 3.77691e-015
lhumerus -26.6748 -2.63619 92.0061
lradius 34.0905
lwrist 22.7695
lhand -16.6719 16.9581
lfingers 7.12502
lthumb 9.55192 46.7216
rfemur -41.3857 6.27876 16.1001
rtibia 34.3586
rfoot -23.77 -15.1073
rtoes -8.03972
lfemur 16.4754 12.2769 -23.6145
ltibia 1.27222e-014
lfoot -16.9233 17.9733
ltoes -11.3383
79
root -35.4554 16.6667 -7.33129 39.0206 88.7113 35.9862
lowerback 3.68637 -1.45188 -2.0226
upperback 3.35752 -1.91736 -0.302089
thorax 1.43829 -0.968476 0.86738
lowerneck -9.71225 -0.0757058 3.20318
upperneck 5.4304 -0.569343 0.773947
head 3.48046 -0.170277 -0.345662
rclavicle -1.08835e-014 4.77083e-015
rhumerus -33.6694 -12.2796 -81.3289
rradius 24.7824
rwrist 6.83661
rhand -17.9883 -4.53777
rfingers 7.12502
rthumb 8.28158 -34.3554
lclavicle -1.08835e-014 4.77083e-015
lhumerus -26.696 -2.87679 92.2512
lradius 34.4848
lwrist 22.9744
lhand -16.6676 16.9585
lfingers 7.12502
lthumb 9.55604 46.7218
rfemur -41.3155 6.21397 16.0233
rtibia 34.6018
rfoot -23.5644 -15.2465
rtoes -7.67206
lfemur 16.7859 12.1754 -23.5804
ltibia -1.90833e-014
lfoot -16.9446 17.9823
ltoes -11.7
